<?xml version="1.0" encoding="UTF-8"?>
<!DOCTYPE svg PUBLIC "-//W3C//DTD SVG 1.1//EN" "http://www.w3.org/Graphics/SVG/1.1/DTD/svg11.dtd">
<svg xmlns="http://www.w3.org/2000/svg" xmlns:xlink="http://www.w3.org/1999/xlink" version="1.1" width="1200px" height="900px" viewBox="-0.5 -0.5 1200 900" content="&lt;mxfile host=&quot;app.diagrams.net&quot;&gt;&lt;diagram name=&quot;店家後台流程&quot; id=&quot;salon-backend&quot;&gt;&lt;mxGraphModel dx=&quot;1200&quot; dy=&quot;900&quot; grid=&quot;1&quot; gridSize=&quot;10&quot; guides=&quot;1&quot; tooltips=&quot;1&quot; connect=&quot;1&quot; arrows=&quot;1&quot; fold=&quot;1&quot; page=&quot;1&quot; pageScale=&quot;1&quot; pageWidth=&quot;1200&quot; pageHeight=&quot;900&quot; math=&quot;0&quot; shadow=&quot;0&quot;&gt;&lt;root&gt;&lt;mxCell id=&quot;0&quot;/&gt;&lt;mxCell id=&quot;1&quot; parent=&quot;0&quot;/&gt;&lt;/root&gt;&lt;/mxGraphModel&gt;&lt;/diagram&gt;&lt;/mxfile&gt;">
  <defs>
    <marker id="arrow" markerWidth="10" markerHeight="10" refX="9" refY="3" orient="auto" markerUnits="strokeWidth">
      <path d="M0,0 L0,6 L9,3 z" fill="#333"/>
    </marker>
    <marker id="arrow-green" markerWidth="10" markerHeight="10" refX="9" refY="3" orient="auto" markerUnits="strokeWidth">
      <path d="M0,0 L0,6 L9,3 z" fill="#388e3c"/>
    </marker>
  </defs>
  <g>
    <!-- Title -->
    <text x="600" y="35" fill="#333333" font-family="Helvetica" font-size="24" font-weight="bold" text-anchor="middle">約來客 Yulake - 店家後台操作流程</text>

    <!-- Login -->
    <ellipse cx="100" cy="120" rx="50" ry="30" fill="#bbdefb" stroke="#1565c0" stroke-width="2"/>
    <text x="100" y="125" fill="#333" font-family="Helvetica" font-size="12" font-weight="bold" text-anchor="middle">店家登入</text>

    <!-- Dashboard -->
    <rect x="200" y="90" width="160" height="60" fill="#c8e6c9" stroke="#388e3c" stroke-width="2" rx="10"/>
    <text x="280" y="115" fill="#333" font-family="Helvetica" font-size="14" font-weight="bold" text-anchor="middle">今日總覽</text>
    <text x="280" y="135" fill="#666" font-family="Helvetica" font-size="10" text-anchor="middle">Dashboard</text>

    <!-- Arrow login to dashboard -->
    <path d="M150 120 L200 120" fill="none" stroke="#333" stroke-width="2" marker-end="url(#arrow)"/>

    <!-- Stats Section -->
    <rect x="420" y="70" width="300" height="100" fill="#fff8e1" stroke="#ffa000" stroke-width="2" rx="8"/>
    <text x="570" y="95" fill="#333" font-family="Helvetica" font-size="12" font-weight="bold" text-anchor="middle">統計數據</text>

    <rect x="435" y="105" width="80" height="50" fill="#ffe082" stroke="#ffa000" stroke-width="1" rx="5"/>
    <text x="475" y="125" fill="#333" font-family="Helvetica" font-size="10" text-anchor="middle">本週預約數</text>
    <text x="475" y="145" fill="#e65100" font-family="Helvetica" font-size="16" font-weight="bold" text-anchor="middle">24</text>

    <rect x="530" y="105" width="80" height="50" fill="#ffe082" stroke="#ffa000" stroke-width="1" rx="5"/>
    <text x="570" y="125" fill="#333" font-family="Helvetica" font-size="10" text-anchor="middle">新顧客數</text>
    <text x="570" y="145" fill="#e65100" font-family="Helvetica" font-size="16" font-weight="bold" text-anchor="middle">5</text>

    <rect x="625" y="105" width="80" height="50" fill="#ffe082" stroke="#ffa000" stroke-width="1" rx="5"/>
    <text x="665" y="125" fill="#333" font-family="Helvetica" font-size="10" text-anchor="middle">爽約次數</text>
    <text x="665" y="145" fill="#c62828" font-family="Helvetica" font-size="16" font-weight="bold" text-anchor="middle">1</text>

    <!-- Arrow dashboard to stats -->
    <path d="M360 120 L420 120" fill="none" stroke="#333" stroke-width="1.5" marker-end="url(#arrow)"/>

    <!-- Today's Bookings -->
    <rect x="780" y="70" width="180" height="100" fill="#e3f2fd" stroke="#1565c0" stroke-width="2" rx="8"/>
    <text x="870" y="95" fill="#333" font-family="Helvetica" font-size="12" font-weight="bold" text-anchor="middle">今日預約列表</text>
    <text x="870" y="115" fill="#666" font-family="Helvetica" font-size="9" text-anchor="middle">10:00 王小姐 - 基礎凝膠</text>
    <text x="870" y="130" fill="#666" font-family="Helvetica" font-size="9" text-anchor="middle">14:00 李小姐 - 光療美甲</text>
    <text x="870" y="145" fill="#666" font-family="Helvetica" font-size="9" text-anchor="middle">16:30 陳小姐 - 手足保養</text>
    <text x="870" y="160" fill="#999" font-family="Helvetica" font-size="9" text-anchor="middle">...</text>

    <!-- Arrow stats to bookings -->
    <path d="M720 120 L780 120" fill="none" stroke="#333" stroke-width="1.5" marker-end="url(#arrow)"/>

    <!-- Navigation Menu Section -->
    <rect x="40" y="200" width="1120" height="60" fill="#f5f5f5" stroke="#bdbdbd" stroke-width="1" rx="5"/>
    <text x="60" y="225" fill="#666" font-family="Helvetica" font-size="11">導航選單：</text>

    <!-- Nav Items -->
    <rect x="150" y="210" width="100" height="40" fill="#e3f2fd" stroke="#1565c0" stroke-width="1" rx="5"/>
    <text x="200" y="235" fill="#1565c0" font-family="Helvetica" font-size="11" font-weight="bold" text-anchor="middle">預約管理</text>

    <rect x="270" y="210" width="100" height="40" fill="#fce4ec" stroke="#c2185b" stroke-width="1" rx="5"/>
    <text x="320" y="235" fill="#c2185b" font-family="Helvetica" font-size="11" font-weight="bold" text-anchor="middle">顧客管理</text>

    <rect x="390" y="210" width="100" height="40" fill="#fff3e0" stroke="#e65100" stroke-width="1" rx="5"/>
    <text x="440" y="235" fill="#e65100" font-family="Helvetica" font-size="11" font-weight="bold" text-anchor="middle">服務設定</text>

    <rect x="510" y="210" width="100" height="40" fill="#f3e5f5" stroke="#7b1fa2" stroke-width="1" rx="5"/>
    <text x="560" y="235" fill="#7b1fa2" font-family="Helvetica" font-size="11" font-weight="bold" text-anchor="middle">設計師設定</text>

    <rect x="630" y="210" width="100" height="40" fill="#e0f7fa" stroke="#00838f" stroke-width="1" rx="5"/>
    <text x="680" y="235" fill="#00838f" font-family="Helvetica" font-size="11" font-weight="bold" text-anchor="middle">店家設定</text>

    <!-- Booking Management Section -->
    <rect x="40" y="290" width="350" height="280" fill="#e3f2fd" stroke="#1565c0" stroke-width="2" rx="8"/>
    <text x="215" y="315" fill="#1565c0" font-family="Helvetica" font-size="14" font-weight="bold" text-anchor="middle">預約管理</text>

    <!-- Filter -->
    <rect x="60" y="330" width="140" height="60" fill="#bbdefb" stroke="#1565c0" stroke-width="1" rx="5"/>
    <text x="130" y="350" fill="#333" font-family="Helvetica" font-size="11" font-weight="bold" text-anchor="middle">篩選條件</text>
    <text x="130" y="365" fill="#666" font-family="Helvetica" font-size="9" text-anchor="middle">日期 / 設計師 / 狀態</text>
    <text x="130" y="380" fill="#666" font-family="Helvetica" font-size="9" text-anchor="middle">關鍵字搜尋</text>

    <!-- Booking List -->
    <rect x="220" y="330" width="150" height="100" fill="#fff" stroke="#1565c0" stroke-width="1" rx="5"/>
    <text x="295" y="350" fill="#333" font-family="Helvetica" font-size="11" font-weight="bold" text-anchor="middle">預約列表</text>
    <text x="295" y="370" fill="#666" font-family="Helvetica" font-size="9" text-anchor="middle">・顧客姓名</text>
    <text x="295" y="385" fill="#666" font-family="Helvetica" font-size="9" text-anchor="middle">・服務項目</text>
    <text x="295" y="400" fill="#666" font-family="Helvetica" font-size="9" text-anchor="middle">・預約時間</text>
    <text x="295" y="415" fill="#666" font-family="Helvetica" font-size="9" text-anchor="middle">・狀態</text>

    <!-- Status Actions -->
    <rect x="60" y="450" width="310" height="100" fill="#e8f5e9" stroke="#388e3c" stroke-width="1" rx="5"/>
    <text x="215" y="470" fill="#388e3c" font-family="Helvetica" font-size="11" font-weight="bold" text-anchor="middle">狀態操作</text>

    <rect x="75" y="485" width="65" height="30" fill="#c8e6c9" stroke="#388e3c" stroke-width="1" rx="3"/>
    <text x="107" y="505" fill="#333" font-family="Helvetica" font-size="9" text-anchor="middle">確認</text>

    <rect x="150" y="485" width="65" height="30" fill="#ffcdd2" stroke="#c62828" stroke-width="1" rx="3"/>
    <text x="182" y="505" fill="#333" font-family="Helvetica" font-size="9" text-anchor="middle">取消</text>

    <rect x="225" y="485" width="65" height="30" fill="#fff3e0" stroke="#e65100" stroke-width="1" rx="3"/>
    <text x="257" y="505" fill="#333" font-family="Helvetica" font-size="9" text-anchor="middle">No-Show</text>

    <rect x="300" y="485" width="65" height="30" fill="#e3f2fd" stroke="#1565c0" stroke-width="1" rx="3"/>
    <text x="332" y="505" fill="#333" font-family="Helvetica" font-size="9" text-anchor="middle">完成</text>

    <!-- Arrow filter to list -->
    <path d="M200 360 L220 360" fill="none" stroke="#333" stroke-width="1" marker-end="url(#arrow)"/>

    <!-- Customer Management Section -->
    <rect x="420" y="290" width="350" height="280" fill="#fce4ec" stroke="#c2185b" stroke-width="2" rx="8"/>
    <text x="595" y="315" fill="#c2185b" font-family="Helvetica" font-size="14" font-weight="bold" text-anchor="middle">顧客管理</text>

    <!-- Customer List -->
    <rect x="440" y="330" width="150" height="100" fill="#fff" stroke="#c2185b" stroke-width="1" rx="5"/>
    <text x="515" y="350" fill="#333" font-family="Helvetica" font-size="11" font-weight="bold" text-anchor="middle">顧客列表</text>
    <text x="515" y="370" fill="#666" font-family="Helvetica" font-size="9" text-anchor="middle">・姓名 / 手機</text>
    <text x="515" y="385" fill="#666" font-family="Helvetica" font-size="9" text-anchor="middle">・總預約次數</text>
    <text x="515" y="400" fill="#666" font-family="Helvetica" font-size="9" text-anchor="middle">・爽約次數</text>
    <text x="515" y="415" fill="#666" font-family="Helvetica" font-size="9" text-anchor="middle">・黑名單狀態</text>

    <!-- Customer Detail -->
    <rect x="610" y="330" width="140" height="100" fill="#f8bbd9" stroke="#c2185b" stroke-width="1" rx="5"/>
    <text x="680" y="350" fill="#333" font-family="Helvetica" font-size="11" font-weight="bold" text-anchor="middle">顧客詳情</text>
    <text x="680" y="370" fill="#666" font-family="Helvetica" font-size="9" text-anchor="middle">・基本資料</text>
    <text x="680" y="385" fill="#666" font-family="Helvetica" font-size="9" text-anchor="middle">・預約歷史</text>
    <text x="680" y="400" fill="#666" font-family="Helvetica" font-size="9" text-anchor="middle">・店家備註</text>
    <text x="680" y="415" fill="#666" font-family="Helvetica" font-size="9" text-anchor="middle">・喜好風格</text>

    <!-- Blacklist -->
    <rect x="440" y="450" width="310" height="100" fill="#ffcdd2" stroke="#c62828" stroke-width="2" rx="5"/>
    <text x="595" y="475" fill="#c62828" font-family="Helvetica" font-size="11" font-weight="bold" text-anchor="middle">黑名單管理</text>

    <rect x="460" y="490" width="120" height="45" fill="#fff" stroke="#c62828" stroke-width="1" rx="3"/>
    <text x="520" y="510" fill="#333" font-family="Helvetica" font-size="10" text-anchor="middle">加入黑名單</text>
    <text x="520" y="525" fill="#666" font-family="Helvetica" font-size="8" text-anchor="middle">輸入原因（選填）</text>

    <rect x="600" y="490" width="120" height="45" fill="#c8e6c9" stroke="#388e3c" stroke-width="1" rx="3"/>
    <text x="660" y="510" fill="#333" font-family="Helvetica" font-size="10" text-anchor="middle">解除黑名單</text>
    <text x="660" y="525" fill="#666" font-family="Helvetica" font-size="8" text-anchor="middle">恢復預約權限</text>

    <!-- Arrow list to detail -->
    <path d="M590 380 L610 380" fill="none" stroke="#333" stroke-width="1" marker-end="url(#arrow)"/>

    <!-- Settings Section -->
    <rect x="800" y="290" width="360" height="280" fill="#e0f7fa" stroke="#00838f" stroke-width="2" rx="8"/>
    <text x="980" y="315" fill="#00838f" font-family="Helvetica" font-size="14" font-weight="bold" text-anchor="middle">店家與服務設定</text>

    <!-- Service Settings -->
    <rect x="820" y="335" width="160" height="100" fill="#fff3e0" stroke="#e65100" stroke-width="1" rx="5"/>
    <text x="900" y="355" fill="#e65100" font-family="Helvetica" font-size="11" font-weight="bold" text-anchor="middle">服務項目設定</text>
    <text x="900" y="375" fill="#666" font-family="Helvetica" font-size="9" text-anchor="middle">・服務名稱 / 說明</text>
    <text x="900" y="390" fill="#666" font-family="Helvetica" font-size="9" text-anchor="middle">・所需時間</text>
    <text x="900" y="405" fill="#666" font-family="Helvetica" font-size="9" text-anchor="middle">・價格</text>
    <text x="900" y="420" fill="#666" font-family="Helvetica" font-size="9" text-anchor="middle">・關聯設計師</text>

    <!-- Stylist Settings -->
    <rect x="990" y="335" width="160" height="100" fill="#f3e5f5" stroke="#7b1fa2" stroke-width="1" rx="5"/>
    <text x="1070" y="355" fill="#7b1fa2" font-family="Helvetica" font-size="11" font-weight="bold" text-anchor="middle">設計師設定</text>
    <text x="1070" y="375" fill="#666" font-family="Helvetica" font-size="9" text-anchor="middle">・姓名 / 介紹</text>
    <text x="1070" y="390" fill="#666" font-family="Helvetica" font-size="9" text-anchor="middle">・擅長風格</text>
    <text x="1070" y="405" fill="#666" font-family="Helvetica" font-size="9" text-anchor="middle">・排班設定</text>
    <text x="1070" y="420" fill="#666" font-family="Helvetica" font-size="9" text-anchor="middle">・可服務項目</text>

    <!-- Shop Settings -->
    <rect x="820" y="450" width="160" height="110" fill="#e0f7fa" stroke="#00838f" stroke-width="1" rx="5"/>
    <text x="900" y="470" fill="#00838f" font-family="Helvetica" font-size="11" font-weight="bold" text-anchor="middle">店家基本設定</text>
    <text x="900" y="490" fill="#666" font-family="Helvetica" font-size="9" text-anchor="middle">・店名 / Logo</text>
    <text x="900" y="505" fill="#666" font-family="Helvetica" font-size="9" text-anchor="middle">・地址 / 電話</text>
    <text x="900" y="520" fill="#666" font-family="Helvetica" font-size="9" text-anchor="middle">・營業時間</text>
    <text x="900" y="535" fill="#666" font-family="Helvetica" font-size="9" text-anchor="middle">・預約規則</text>
    <text x="900" y="550" fill="#666" font-family="Helvetica" font-size="9" text-anchor="middle">・主題顏色</text>

    <!-- Link Management -->
    <rect x="990" y="450" width="160" height="110" fill="#fff9c4" stroke="#f9a825" stroke-width="1" rx="5"/>
    <text x="1070" y="470" fill="#f9a825" font-family="Helvetica" font-size="11" font-weight="bold" text-anchor="middle">連結管理</text>
    <text x="1070" y="495" fill="#666" font-family="Helvetica" font-size="9" text-anchor="middle">預約網址</text>
    <text x="1070" y="510" fill="#1565c0" font-family="Helvetica" font-size="8" text-anchor="middle">booking.yulake.com/s/xxx</text>
    <text x="1070" y="535" fill="#666" font-family="Helvetica" font-size="9" text-anchor="middle">QR Code 下載</text>
    <rect x="1040" y="542" width="60" height="15" fill="#e3f2fd" stroke="#1565c0" stroke-width="1" rx="3"/>
    <text x="1070" y="553" fill="#1565c0" font-family="Helvetica" font-size="8" text-anchor="middle">下載</text>

    <!-- Booking Status State Machine -->
    <rect x="40" y="600" width="700" height="180" fill="#fafafa" stroke="#bdbdbd" stroke-width="2" rx="8"/>
    <text x="390" y="625" fill="#333" font-family="Helvetica" font-size="14" font-weight="bold" text-anchor="middle">預約狀態流轉圖 (State Machine)</text>

    <!-- States -->
    <ellipse cx="120" cy="700" rx="50" ry="25" fill="#fff3e0" stroke="#e65100" stroke-width="2"/>
    <text x="120" y="705" fill="#333" font-family="Helvetica" font-size="10" font-weight="bold" text-anchor="middle">待確認</text>

    <ellipse cx="280" cy="700" rx="50" ry="25" fill="#c8e6c9" stroke="#388e3c" stroke-width="2"/>
    <text x="280" y="705" fill="#333" font-family="Helvetica" font-size="10" font-weight="bold" text-anchor="middle">已確認</text>

    <ellipse cx="440" cy="660" rx="50" ry="25" fill="#e3f2fd" stroke="#1565c0" stroke-width="2"/>
    <text x="440" y="665" fill="#333" font-family="Helvetica" font-size="10" font-weight="bold" text-anchor="middle">已完成</text>

    <ellipse cx="440" cy="740" rx="50" ry="25" fill="#ffcdd2" stroke="#c62828" stroke-width="2"/>
    <text x="440" y="745" fill="#333" font-family="Helvetica" font-size="10" font-weight="bold" text-anchor="middle">未出席</text>

    <ellipse cx="600" cy="660" rx="60" ry="25" fill="#f5f5f5" stroke="#757575" stroke-width="2"/>
    <text x="600" y="665" fill="#333" font-family="Helvetica" font-size="9" font-weight="bold" text-anchor="middle">顧客取消</text>

    <ellipse cx="600" cy="740" rx="60" ry="25" fill="#f5f5f5" stroke="#757575" stroke-width="2"/>
    <text x="600" y="745" fill="#333" font-family="Helvetica" font-size="9" font-weight="bold" text-anchor="middle">店家取消</text>

    <!-- State Arrows -->
    <path d="M170 700 L230 700" fill="none" stroke="#388e3c" stroke-width="2" marker-end="url(#arrow-green)"/>
    <text x="200" y="690" fill="#388e3c" font-family="Helvetica" font-size="8" text-anchor="middle">確認</text>

    <path d="M330 690 L390 665" fill="none" stroke="#333" stroke-width="1.5" marker-end="url(#arrow)"/>
    <text x="355" y="665" fill="#333" font-family="Helvetica" font-size="8" text-anchor="middle">完成</text>

    <path d="M330 710 L390 735" fill="none" stroke="#c62828" stroke-width="1.5" marker-end="url(#arrow)"/>
    <text x="350" y="735" fill="#c62828" font-family="Helvetica" font-size="8" text-anchor="middle">No-Show</text>

    <path d="M120 675 L120 650 L540 650 L540 660" fill="none" stroke="#757575" stroke-width="1" marker-end="url(#arrow)"/>
    <path d="M280 675 L280 640 L540 640 L540 655" fill="none" stroke="#757575" stroke-width="1"/>

    <path d="M120 725 L120 760 L540 760 L540 745" fill="none" stroke="#757575" stroke-width="1" marker-end="url(#arrow)"/>
    <path d="M280 725 L280 770 L540 770 L540 750" fill="none" stroke="#757575" stroke-width="1"/>

    <!-- Legend -->
    <rect x="780" y="600" width="380" height="180" fill="#fafafa" stroke="#bdbdbd" stroke-width="1" rx="5"/>
    <text x="970" y="625" fill="#333" font-family="Helvetica" font-size="12" font-weight="bold" text-anchor="middle">圖例說明</text>

    <rect x="800" y="645" width="20" height="15" fill="#e3f2fd" stroke="#1565c0" rx="3"/>
    <text x="830" y="657" fill="#333" font-family="Helvetica" font-size="10">預約管理</text>

    <rect x="930" y="645" width="20" height="15" fill="#fce4ec" stroke="#c2185b" rx="3"/>
    <text x="960" y="657" fill="#333" font-family="Helvetica" font-size="10">顧客管理</text>

    <rect x="1060" y="645" width="20" height="15" fill="#e0f7fa" stroke="#00838f" rx="3"/>
    <text x="1090" y="657" fill="#333" font-family="Helvetica" font-size="10">設定</text>

    <rect x="800" y="675" width="20" height="15" fill="#fff3e0" stroke="#e65100" rx="3"/>
    <text x="830" y="687" fill="#333" font-family="Helvetica" font-size="10">服務設定</text>

    <rect x="930" y="675" width="20" height="15" fill="#f3e5f5" stroke="#7b1fa2" rx="3"/>
    <text x="960" y="687" fill="#333" font-family="Helvetica" font-size="10">設計師設定</text>

    <rect x="1060" y="675" width="20" height="15" fill="#ffcdd2" stroke="#c62828" rx="3"/>
    <text x="1090" y="687" fill="#333" font-family="Helvetica" font-size="10">黑名單</text>

    <text x="800" y="720" fill="#333" font-family="Helvetica" font-size="10" font-weight="bold">狀態說明：</text>
    <text x="800" y="740" fill="#666" font-family="Helvetica" font-size="9">pending → confirmed → completed</text>
    <text x="800" y="755" fill="#666" font-family="Helvetica" font-size="9">任何狀態可被取消或標記未出席</text>
    <text x="800" y="770" fill="#c62828" font-family="Helvetica" font-size="9">No-Show 會累計爽約次數</text>

    <!-- Version -->
    <text x="1120" y="860" fill="#999" font-family="Helvetica" font-size="10" text-anchor="end">v1.0 | 約來客 Yulake 預約系統</text>
  </g>
</svg>
